<svg xmlns="http://www.w3.org/2000/svg" viewBox="10 10 320 344" fill="none">
  <defs>
    <linearGradient id="ig" x1="308.9" y1="39.66" x2="51.73" y2="321.5" gradientUnits="userSpaceOnUse">
      <stop offset="0" stop-color="#6D39C6"/>
      <stop offset=".51" stop-color="#3B59AE"/>
      <stop offset="1" stop-color="#177086"/>
    </linearGradient>
  </defs>
  <path d="m266.1 22h-161.6c-44.78 0-76.49 35.74-76.49 81.86v154.3c0 43.35 33.78 79.87 76.69 79.87h159.1c44.34 0 75.16-36.9 75.16-77.98v-155.8c0-44.86-31.03-82.25-72.86-82.25z" fill="url(#ig)"/>
  <path d="m265.8 126.1c-35.71 4.03-65.41-11.99-81.88-29.28-16.06 17.12-40.79 30.97-80.26 29.28-3.73 12.81-7.45 27.43-6.48 40.77 4.24 57.94 40.14 86.79 86.74 101.1 37.27-11.79 80.15-41.78 86.74-99.29 1.67-14.95-0.89-29.91-4.86-42.61zm-8.19 42.02c-4.88 42.61-35.09 71.21-72.99 84.32-34.67-10.05-70.46-37.37-73.84-83.17-0.77-10.37-0.07-19.19 2.74-32.11 26.63 0.26 50.5-6.13 69.44-24.02 17.55 15.22 40.19 23.99 73.03 24.02 2.97 10.64 2.84 21.06 1.62 30.96z" fill="#fff"/>
  <path d="m183.8 158.7c-10.97 0.03-17.72 12.15-11.54 22.82 1.66 3.08 4.4 4.99 4.89 5.72v12.72c0 4.79 2.05 7.68 6.8 7.68s6.57-2.43 6.57-7.68v-12.72c1.34-1.23 3.43-3.02 4.77-5.11 6.84-10.5-1.09-23.46-11.49-23.43z" fill="#fff"/>
</svg>
